<svg id="linkedin-bug" width="28" height="28" preserveAspectRatio="xMinYMin meet" xmlns="http://www.w3.org/2000/svg"
     xmlns:xlink="http://www.w3.org/1999/xlink" version="1.1">
  <defs></defs>
  <g class="bug-28dp" stroke="none" stroke-width="1" fill="none" fill-rule="evenodd">
    <g class="dp-1">
      <path
          d="M25.375,0 L2.625,0 C1.175,0 0,1.175 0,2.625 L0,25.375 C0,26.825 1.175,28 2.625,28 L25.375,28 C26.825,28 28,26.825 28,25.375 L28,2.625 C28,1.175 26.825,0 25.375,0"
          class="bug-text-color" fill="#FFFFFF"/>
      <path
          d="M25.375,0 L2.625,0 C1.175,0 0,1.175 0,2.625 L0,25.375 C0,26.825 1.175,28 2.625,28 L25.375,28 C26.825,28 28,26.825 28,25.375 L28,2.625 C28,1.175 26.825,0 25.375,0 Z M14.8747,12.025 L14.8747,10 L10.9997,10 L10.9997,24 L14.9997,24 L14.9997,17.375 C14.9997,15.603 15.6627,13.875 17.6497,13.875 C19.4667,13.875 19.9997,14.965 19.9997,16.875 L19.9997,24 L23.9997,24 L23.9997,14.975 C23.9997,11.75 22.2917,9.875 19.0137,9.875 C16.9227,9.875 15.4487,11.025 14.8747,12.025 Z M4,24 L8,24 L8,10 L4,10 L4,24 Z M6,3.665 C4.71,3.665 3.665,4.71 3.665,6 C3.665,7.29 4.71,8.335 6,8.335 C7.29,8.335 8.335,7.29 8.335,6 C8.335,4.71 7.29,3.665 6,3.665 Z"
          class="background" fill="#0077B5"/>
    </g>
    <g class="dpi-gt1" transform="scale(0.5833)">
      <rect class="bug-text-color" fill="#FFFFFF" x="1" y="1" width="46" height="46" rx="4"/>
      <path
          d="M0,4.00989318 C0,1.79529033 1.79405245,0 4.00989318,0 L43.9901068,0 C46.2047097,0 48,1.79405245 48,4.00989318 L48,43.9901068 C48,46.2047097 46.2059475,48 43.9901068,48 L4.00989318,48 C1.79529033,48 0,46.2059475 0,43.9901068 L0,4.00989318 Z M19,18.3 L25.5,18.3 L25.5,21.566 C26.437,19.688 28.838,18 32.445,18 C39.359,18 41,21.738 41,28.597 L41,41.3 L34,41.3 L34,30.159 C34,26.253 33.063,24.05 30.68,24.05 C27.375,24.05 26,26.425 26,30.159 L26,41.3 L19,41.3 L19,18.3 Z M7,41 L14,41 L14,18 L7,18 L7,41 Z M15,10.5 C15,12.985 12.985,15 10.5,15 C8.015,15 6,12.985 6,10.5 C6,8.015 8.015,6 10.5,6 C12.985,6 15,8.015 15,10.5 Z"
          class="background" fill="#0077B5"/>
    </g>
  </g>
</svg>